#!OML:ASF H:\LiuWeirdWalks\Patient Classification 1\Patient 1\Session 1\male.ASF
:FULLY-SPECIFIED
:DEGREES
1085
root 4.31674 8.92037 0.680326 6.25244 -2.046 -0.893486
lowerback 38.6305 0.246422 -0.895576
upperback 8.00149 0.313009 2.95234
thorax -10.0543 0.116289 3.51203
lowerneck -12.8488 1.18258 4.32411
upperneck -13.2829 0.59159 -6.40178
head -2.06874 0.157693 -2.83609
rclavicle -1.63003e-014 1.86858e-014
rhumerus -13.7706 -0.721896 -64.6741
rradius 52.2564
rwrist -25.0301
rhand -17.9573 4.14019
rfingers 7.12502
rthumb 8.31152 -25.6763
lclavicle -1.63003e-014 1.86858e-014
lhumerus -20.2027 7.04791 75.7248
lradius 58.1647
lwrist 20.5687
lhand -10.3618 -3.32786
lfingers 7.12502
lthumb 15.6352 26.0603
rfemur -97.0704 -47.3227 16.3879
rtibia 139.493
rfoot -32.0066 3.86007
rtoes -22.8428
lfemur -90.2595 53.2008 -9.87049
ltibia 140.402
lfoot -39.7653 -10.5315
ltoes -31.5364
1086
root 4.30561 8.81232 0.693745 6.28213 -2.02805 -0.961515
lowerback 38.1226 0.299904 -0.952501
upperback 8.05677 0.358043 2.9742
thorax -9.82289 0.135906 3.5443
lowerneck -12.804 1.14598 4.30704
upperneck -13.3222 0.548915 -6.33822
head -2.09207 0.137312 -2.81288
rclavicle -1.43125e-014 5.56597e-015
rhumerus -13.7245 -0.588516 -64.9511
rradius 52.0808
rwrist -25.3821
rhand -17.7343 4.09551
rfingers 7.12502
rthumb 8.52671 -25.7123
lclavicle -1.43125e-014 5.56597e-015
lhumerus -19.9513 6.66394 75.9352
lradius 57.6758
lwrist 20.7759
lhand -9.53476 -3.55211
lfingers 7.12502
lthumb 16.4316 25.772
rfemur -98.4542 -48.1963 17.0131
rtibia 140.378
rfoot -31.9274 4.27117
rtoes -22.9471
lfemur -91.6403 54.8128 -10.2189
ltibia 141.252
lfoot -40.0662 -11.111
ltoes -31.5596
1087
root 4.29513 8.71366 0.70692 6.2498 -1.95982 -1.0301
lowerback 37.7137 0.320508 -0.962626
upperback 8.0983 0.381504 2.99524
thorax -9.63747 0.145534 3.5607
lowerneck -12.78 1.10204 4.2642
upperneck -13.3245 0.501698 -6.25278
head -2.09953 0.115095 -2.77676
rclavicle 3.18055e-015 9.93923e-015
rhumerus -13.6954 -0.457965 -65.2281
rradius 51.9104
rwrist -25.7128
rhand -17.568 4.00731
rfingers 7.12502
rthumb 8.68724 -25.7939
lclavicle 3.18055e-015 9.93923e-015
lhumerus -19.7158 6.32628 76.118
lradius 57.2443
lwrist 20.963
lhand -8.60893 -3.73348
lfingers 7.12502
lthumb 17.3229 25.5145
rfemur -99.6569 -49.1222 17.5774
rtibia 141.191
rfoot -31.8912 4.68295
rtoes -23.048
lfemur -92.9003 56.2554 -10.5721
ltibia 142.036
lfoot -40.3354 -11.5378
ltoes -31.5407
1088
root 4.2842 8.63226 0.718764 5.99889 -1.86769 -1.10724
lowerback 37.6315 0.328523 -0.946747
upperback 8.12985 0.399998 3.01778
thorax -9.57527 0.15297 3.56842
lowerneck -12.754 1.05744 4.21069
upperneck -13.3054 0.456353 -6.15943
head -2.09983 0.0941871 -2.73561
rclavicle 6.75868e-015 2.5842e-014
rhumerus -13.6915 -0.318877 -65.5088
rradius 51.7557
rwrist -25.9995
rhand -17.4545 3.87372
rfingers 7.12502
rthumb 8.79679 -25.9229
lclavicle 6.75868e-015 2.5842e-014
lhumerus -19.5034 6.05048 76.2644
lradius 56.8848
lwrist 21.0858
lhand -7.60521 -3.81382
lfingers 7.12502
lthumb 18.2887 25.3464
rfemur -100.257 -50.0438 17.8345
rtibia 141.872
rfoot -31.9654 5.05553
rtoes -23.1655
lfemur -93.5334 57.5515 -10.5518
ltibia 142.692
lfoot -40.628 -11.8645
ltoes -31.4752
1089
root 4.27401 8.57109 0.728691 5.45554 -1.70481 -1.19739
lowerback 37.9938 0.296692 -0.8672
upperback 8.1484 0.395524 3.04587
thorax -9.67924 0.149626 3.55948
lowerneck -12.7358 1.0164 4.16251
upperneck -13.2566 0.415202 -6.07911
head -2.08848 0.075056 -2.69942
rclavicle -1.59028e-015 -1.03368e-014
rhumerus -13.7073 -0.169553 -65.7825
rradius 51.605
rwrist -26.2058
rhand -17.3994 3.69214
rfingers 7.12502
rthumb 8.84999 -26.1023
lclavicle -1.59028e-015 -1.03368e-014
lhumerus -19.3249 5.82289 76.3781
lradius 56.6082
lwrist 21.1686
lhand -6.5826 -3.78599
lfingers 7.12502
lthumb 19.2722 25.2791
rfemur -100.017 -51.046 17.6293
rtibia 142.392
rfoot -32.2101 5.39721
rtoes -23.3254
lfemur -93.2781 58.5768 -9.94088
ltibia 143.194
lfoot -40.9356 -12.0815
ltoes -31.3849
1090
root 4.26419 8.5247 0.737375 4.75168 -1.51025 -1.29264
lowerback 38.5953 0.24191 -0.75457
upperback 8.15954 0.377377 3.07307
thorax -9.87029 0.139772 3.53902
lowerneck -12.742 0.976416 4.10618
upperneck -13.1727 0.377276 -5.99429
head -2.06096 0.0573604 -2.65955
rclavicle -4.37326e-015 1.39149e-014
rhumerus -13.7345 -0.0100151 -66.0486
rradius 51.4639
rwrist -26.3437
rhand -17.3956 3.48212
rfingers 7.12502
rthumb 8.85363 -26.3122
lclavicle -4.37326e-015 1.39149e-014
lhumerus -19.1713 5.64308 76.4607
lradius 56.4033
lwrist 21.1539
lhand -5.61898 -3.71837
lfingers 7.12502
lthumb 20.1986 25.2515
rfemur -99.2247 -52.0482 17.0817
rtibia 142.786
rfoot -32.5529 5.7155
rtoes -23.5351
lfemur -92.4508 59.4158 -8.92908
ltibia 143.578
lfoot -41.2306 -12.2579
ltoes -31.3106
